<?xml version="1.0" encoding="UTF-8"?>
<svg version="1.1" xmlns="http://www.w3.org/2000/svg" width="512" height="512">
<path d="M0 0 C1.31342133 -0.00226556 2.62684266 -0.00453111 3.98006463 -0.00686532 C7.60594564 -0.01295355 11.23180348 -0.01285326 14.85768843 -0.01167095 C18.77601949 -0.01146618 22.69434327 -0.01699288 26.6126709 -0.02172852 C34.28202072 -0.03001924 41.95136285 -0.03278264 49.62071678 -0.03334089 C55.85752008 -0.0338168 62.09432085 -0.03587525 68.33112335 -0.03904152 C86.03078183 -0.04784373 103.73043425 -0.05246156 121.43009493 -0.05171105 C122.38340347 -0.05167109 123.33671201 -0.05163113 124.31890869 -0.05158997 C125.7506263 -0.05152864 125.7506263 -0.05152864 127.2112675 -0.05146609 C142.67632126 -0.05105972 158.14135065 -0.06062795 173.60639736 -0.07472833 C189.50263123 -0.08910699 205.39885324 -0.0959977 221.29509377 -0.09513456 C230.21285039 -0.09480311 239.13058147 -0.09752745 248.04833221 -0.10831261 C255.64143161 -0.11743721 263.23449388 -0.11957679 270.8275964 -0.11280318 C274.69755466 -0.10954788 278.56744178 -0.10944534 282.43739319 -0.11815643 C286.64288574 -0.12752501 290.84821499 -0.12121965 295.05371094 -0.11352539 C296.26259027 -0.11866895 297.47146961 -0.12381252 298.71698165 -0.12911195 C315.36848107 -0.06205613 329.28816167 3.10209501 342.78082275 13.13371277 C344.29676025 14.21652527 344.29676025 14.21652527 345.84332275 15.32121277 C355.188951 23.44671732 361.69856018 36.00861 363.78082275 48.13371277 C364.07600514 52.56002027 364.07461322 56.97681978 364.0713501 61.41178894 C364.07806732 62.72831451 364.08478455 64.04484009 364.09170532 65.40126038 C364.10928553 68.99453896 364.1140574 72.58772213 364.11533689 76.18103957 C364.11676396 78.43252459 364.12104408 80.68398579 364.12633133 82.93546486 C364.14480749 90.80893605 364.15300526 98.68233976 364.15142822 106.55583191 C364.15022851 113.86423085 364.17130335 121.17233367 364.20291555 128.48065776 C364.22917993 134.7799225 364.23979124 141.07909117 364.2385174 147.37841016 C364.23801061 151.12968048 364.24353532 154.88068753 364.2648735 158.63190269 C364.28442759 162.16565263 364.2842653 165.69889288 364.26984024 169.2326622 C364.26679643 171.12544007 364.28330897 173.01821895 364.30072021 174.91091919 C364.18390416 191.05060627 358.27822121 205.15359834 347.19488525 216.84855652 C335.21953826 228.18444323 321.13087434 233.45438486 304.82989502 233.40837097 C303.87904022 233.4134819 302.92818542 233.41859283 301.94851685 233.42385864 C298.83135538 233.43766412 295.71441725 233.43680485 292.597229 233.43449402 C290.41444315 233.4383856 288.23165804 233.44272122 286.0488739 233.44747925 C281.48383118 233.45492179 276.91886582 233.45466422 272.3538208 233.4493866 C266.52236335 233.44359133 260.69122344 233.46053415 254.85981846 233.48373127 C250.35491606 233.49850701 245.8500895 233.49933513 241.34516716 233.49622154 C239.19591581 233.49673271 237.04665999 233.50193182 234.89743233 233.51203346 C231.88513014 233.52445662 228.87343843 233.5175712 225.86114502 233.50602722 C224.98551407 233.51367096 224.10988312 233.5213147 223.2077179 233.52919006 C210.25056374 233.42018081 198.02440846 227.93560338 188.60894775 219.07511902 C182.65482019 212.75203911 179.19793297 205.94494907 175.90582275 198.00871277 C172.158322 189.12056125 167.80080696 182.93606273 158.59332275 179.13371277 C149.81581113 176.7663979 138.88563324 176.64955594 130.78082275 181.13371277 C123.25235172 186.19403597 120.06538224 191.88386604 116.78082275 200.13371277 C109.7177149 215.87151083 100.56445572 224.76609119 84.44488525 231.18840027 C80.78089907 232.4885244 77.59201839 233.25751303 73.69805908 233.27415466 C72.8937294 233.27986481 72.08939972 233.28557495 71.26069641 233.29145813 C70.38690842 233.29257599 69.51312042 233.29369385 68.612854 233.29484558 C67.68544907 233.29981049 66.75804413 233.30477539 65.80253601 233.30989075 C62.73279069 233.3244993 59.66309714 233.3313142 56.59332275 233.33683777 C54.45302327 233.34259275 52.31272379 233.34835044 50.17242432 233.35411072 C45.68007162 233.36461869 41.18773679 233.37046189 36.69537354 233.37394714 C30.96375727 233.37941441 25.23238065 233.40340547 19.50083923 233.4319191 C15.07563612 233.45063187 10.65048956 233.45575579 6.22525024 233.45728302 C4.11392922 233.46029343 2.0026088 233.46826692 -0.1086731 233.4814682 C-20.43331069 233.59942287 -36.73607314 231.07323159 -52.07073975 216.38371277 C-64.30499145 203.57111462 -68.687602 188.97607833 -68.62322998 171.51506042 C-68.63009323 170.19809677 -68.63695648 168.88113312 -68.64402771 167.52426147 C-68.66182713 163.94350369 -68.66081582 160.36299272 -68.65508533 156.78220415 C-68.6519738 153.77809815 -68.65810766 150.77403823 -68.66412407 147.76993883 C-68.67812466 140.67501123 -68.67664577 133.58020416 -68.66522217 126.48527527 C-68.65374866 119.19895185 -68.66781373 111.91299686 -68.69461864 104.62672198 C-68.71686837 98.34012333 -68.72339217 92.05363954 -68.71754223 85.76700437 C-68.71419309 82.02585541 -68.7164498 78.28494239 -68.73379326 74.54382706 C-68.74940912 71.02232566 -68.7451477 67.50136438 -68.72648811 63.97988319 C-68.72112284 62.09430694 -68.7352047 60.20870555 -68.75018311 58.32318115 C-68.61784239 42.78388703 -63.09835449 28.55323697 -52.4105835 17.19621277 C-37.41238813 3.08026419 -19.85485593 -0.02524816 0 0 Z M3.90419006 75.48934937 C1.24255445 79.38540025 2.60609769 85.04778487 3.31393433 89.44703674 C4.07043645 93.39020124 4.89147077 97.31457567 5.737854 101.23918152 C6.04510898 102.69156289 6.35179556 104.14406461 6.65794373 105.59667969 C7.29858066 108.62617848 7.94564989 111.65420913 8.59747314 114.68132019 C9.42976802 118.54881557 10.24638962 122.41942207 11.0583086 126.29123974 C11.68796214 129.2857705 12.32559443 132.27855904 12.96564293 135.27088356 C13.26980485 136.69723957 13.57159161 138.12410434 13.87088966 139.55148888 C14.29092436 141.54840995 14.72161039 143.54274932 15.15509033 145.53678894 C15.39713699 146.66880234 15.63918365 147.80081573 15.88856506 148.96713257 C17.05689438 153.11347786 18.53940631 156.78360087 21.47613525 159.97746277 C24.81029165 161.65019208 28.00708209 161.64710264 31.65582275 161.63371277 C32.35062744 161.66207214 33.04543213 161.69043152 33.7612915 161.71965027 C38.25030547 161.73655804 41.01574496 160.83021663 44.37142944 157.8547821 C47.20090487 154.39959088 48.05703994 150.16130385 49.18707275 145.91496277 C49.47417114 144.90590881 49.76126953 143.89685486 50.05706787 142.85722351 C50.66716877 140.71201938 51.2692324 138.56451549 51.86383057 136.41496277 C53.06240058 132.12614992 54.33827008 127.862147 55.61431885 123.59587097 C56.87862093 119.35254489 58.11291286 115.10076283 59.34527588 110.84806824 C59.97778072 108.67490572 60.61595703 106.50338712 61.25933838 104.3334198 C62.20690231 101.13515417 63.13634807 97.9321079 64.06207275 94.72746277 C64.49622498 93.28216187 64.49622498 93.28216187 64.93914795 91.80766296 C66.43082471 86.56336664 67.2201897 82.55147595 65.78082275 77.13371277 C63.13184527 73.47189095 61.77030872 72.2927373 57.28082275 71.57121277 C53.11321436 72.24100698 51.75532033 73.17344724 48.78082275 76.13371277 C47.65594863 78.70788563 46.84106188 81.01392627 46.09332275 83.69621277 C45.85984131 84.4803656 45.62635986 85.26451843 45.38580322 86.07243347 C44.49665754 89.08713223 43.6393892 92.11015853 42.78082275 95.13371277 C42.366906 96.57302286 41.95231024 98.01213779 41.53717041 99.45109558 C38.58903441 109.670368 35.67327572 119.89854909 32.78082275 130.13371277 C32.55942627 129.13219177 32.33802979 128.13067078 32.10992432 127.09880066 C31.26862418 123.29450959 30.42580377 119.49055653 29.58258057 115.68669128 C29.22150464 114.05689678 28.8608123 112.42701724 28.50054932 110.79704285 C27.62321517 106.82820862 26.74012513 102.86084414 25.84527588 98.8959198 C25.12441663 95.69893366 24.4344271 92.49723641 23.76324463 89.28947449 C23.43087266 87.75701783 23.0982028 86.22462574 22.76519775 84.69230652 C22.62438782 83.98872513 22.48357788 83.28514374 22.33850098 82.5602417 C21.39007095 78.29076588 20.22007698 75.86673653 16.78082275 73.13371277 C11.95183335 70.71921807 7.78025691 71.82880555 3.90419006 75.48934937 Z M234.78082275 76.13371277 C233.30137269 79.0926129 233.61619904 82.10452158 233.6038208 85.34977722 C233.5972496 86.09306274 233.59067841 86.83634827 233.58390808 87.60215759 C233.56416375 90.06710405 233.55250992 92.53198955 233.5425415 94.99699402 C233.53846598 95.83842642 233.53439045 96.67985882 233.53019142 97.54678917 C233.50932569 102.00048452 233.49502625 106.45414902 233.48565674 110.90788269 C233.47459207 115.50814676 233.44019324 120.10792714 233.40048504 124.70802021 C233.37433921 128.24508565 233.36596672 131.7820355 233.36237526 135.31918907 C233.35750389 137.01486159 233.34587421 138.71052876 233.32733727 140.40610695 C233.30298852 142.78094926 233.30390249 145.1545358 233.31085205 147.52946472 C233.29804199 148.22835312 233.28523193 148.92724152 233.27203369 149.64730835 C233.32269185 154.4030033 234.42532785 156.79165558 237.78082275 160.13371277 C240.91953463 161.70306871 243.31938097 161.4857238 246.78082275 161.13371277 C249.41098437 158.96097057 251.25419169 157.18697489 252.78082275 154.13371277 C253.01255102 151.58756268 253.19976805 149.05975052 253.34332275 146.50871277 C253.38650635 145.80230652 253.42968994 145.09590027 253.47418213 144.36808777 C253.58027026 142.6235274 253.68105164 140.8786458 253.78082275 139.13371277 C254.652229 139.88394714 255.52363525 140.63418152 256.42144775 141.40715027 C258.90580071 143.54511865 261.39835835 145.67312446 263.894104 147.79777527 C266.3404125 149.88424358 268.75299448 151.99909734 271.1362915 154.15715027 C271.91794678 154.84865173 271.91794678 154.84865173 272.71539307 155.55412292 C274.14086974 156.81519277 275.55305649 158.0912386 276.9644165 159.36808777 C280.51612771 161.59468065 282.65720665 161.61209051 286.78082275 161.13371277 C290.35619432 159.30702339 290.35619432 159.30702339 292.78082275 156.13371277 C293.5638367 152.0881407 293.79975967 149.85778356 291.70269775 146.30949402 C287.94784061 141.719078 283.29429271 137.95086673 278.78082275 134.13371277 C277.27860168 132.82375548 275.7785256 131.51133346 274.28082275 130.19621277 C273.61051025 129.60968933 272.94019775 129.02316589 272.24957275 128.41886902 C271.76488525 127.99476746 271.28019775 127.57066589 270.78082275 127.13371277 C271.62644775 126.91457214 272.47207275 126.69543152 273.34332275 126.46965027 C283.62919757 123.59428072 290.41368378 120.34435501 295.8706665 110.96574402 C299.09382769 104.47792172 298.9228756 96.09354087 296.94488525 89.23527527 C293.36613597 81.42927851 287.71646685 76.09368708 279.80551147 72.77868652 C276.22610012 71.63844884 272.68959499 71.68607309 268.96051025 71.70011902 C268.13882355 71.69487717 267.31713684 71.68963531 266.47055054 71.68423462 C264.74439621 71.67784632 263.01819816 71.67910978 261.29205322 71.68766785 C258.65601365 71.69621215 256.02211942 71.66731938 253.3862915 71.63566589 C251.7026984 71.63405443 250.01910148 71.63463037 248.33551025 71.63761902 C247.55207245 71.62638504 246.76863464 71.61515106 245.9614563 71.60357666 C240.93844715 71.66744154 238.28992402 72.51012 234.78082275 76.13371277 Z " fill="#000000" transform="translate(108.21917724609375,219.8662872314453)"/>
<path d="M0 0 C0.94455551 -0.01268417 1.88911102 -0.02536835 2.86228943 -0.03843689 C3.87590042 -0.03550125 4.88951141 -0.03256561 5.93383789 -0.02954102 C6.98172989 -0.03478287 8.02962189 -0.04002472 9.10926819 -0.04542542 C11.32413853 -0.05184533 13.53904298 -0.05050904 15.75390625 -0.04199219 C19.14067399 -0.03348699 22.5257526 -0.06223783 25.91235352 -0.09399414 C28.0653478 -0.09560638 30.21834507 -0.0950282 32.37133789 -0.09204102 C33.38292465 -0.10327499 34.39451141 -0.11450897 35.43675232 -0.12608337 C39.73454826 -0.08354134 42.4784052 -0.01282096 46.27197266 2.12255859 C50.8835202 7.52630929 50.49561068 13.02103383 50.44604492 19.79394531 C50.44633698 20.8383075 50.44662903 21.88266968 50.44692993 22.9586792 C50.4455383 26.40539909 50.42998467 29.85190193 50.41430664 33.29858398 C50.41057593 35.69040305 50.40772923 38.08222365 50.4057312 40.4740448 C50.39809937 46.76557646 50.37845463 53.0570156 50.35632324 59.34851074 C50.33585519 65.7700068 50.32672742 72.19151782 50.31665039 78.61303711 C50.29520842 91.21008176 50.2614629 103.80706232 50.21899414 116.40405273 C50.79671066 116.3973909 51.37442719 116.39072906 51.96965027 116.38386536 C57.98801096 116.31744276 64.00626733 116.27222339 70.02490234 116.23925781 C72.27038808 116.22418091 74.51584443 116.20371621 76.76123047 116.17773438 C79.99071513 116.14130356 83.21981008 116.12431518 86.44946289 116.11108398 C87.45172409 116.09560013 88.45398529 116.08011627 89.48661804 116.06416321 C95.83409402 116.06263408 99.4370152 116.74081679 104.14086914 121.24389648 C119.21899414 138.54507838 119.21899414 138.54507838 119.21899414 142.40405273 C52.22899414 142.40405273 -14.76100586 142.40405273 -83.78100586 142.40405273 C-81.69060176 137.17804249 -79.10652736 132.95234516 -76.03100586 128.27905273 C-75.51795898 127.46823242 -75.00491211 126.65741211 -74.47631836 125.82202148 C-73.96327148 125.04213867 -73.45022461 124.26225586 -72.92163086 123.45874023 C-72.46304688 122.75217285 -72.00446289 122.04560547 -71.53198242 121.31762695 C-68.60529301 118.11916186 -65.59029924 116.5891573 -61.23297501 116.14336967 C-58.09105102 116.05700704 -54.96288212 116.06710364 -51.82006836 116.11108398 C-50.67436371 116.11532883 -49.52865906 116.11957367 -48.34823608 116.12394714 C-44.70058371 116.14069633 -41.05349035 116.17834282 -37.40600586 116.21655273 C-34.92814927 116.23160438 -32.450284 116.24529194 -29.97241211 116.25756836 C-23.90842034 116.29058761 -17.84475305 116.34075014 -11.78100586 116.40405273 C-11.78377124 115.85813414 -11.78653662 115.31221554 -11.7893858 114.74975395 C-11.85569798 101.45377728 -11.90512023 88.15782966 -11.93644238 74.86172295 C-11.95209883 68.43175978 -11.97333709 62.00191596 -12.00732422 55.57202148 C-12.03991784 49.36693269 -12.05785903 43.16195871 -12.06563759 36.95679092 C-12.07118104 34.58930784 -12.08200598 32.22183104 -12.09819603 29.85439682 C-12.11996986 26.53861659 -12.12297274 23.22331092 -12.12158203 19.9074707 C-12.13236786 18.92851334 -12.14315369 17.94955597 -12.15426636 16.94093323 C-12.13044692 11.69323979 -11.83784932 7.87962362 -8.78100586 3.40405273 C-5.9295104 0.61134862 -3.9451213 0.02571993 0 0 Z " fill="#000000" transform="translate(236.781005859375,58.595947265625)"/>
<path d="M0 0 C9.27536232 1.15942029 9.27536232 1.15942029 12.75 2.25 C13.82507813 2.56710937 13.82507813 2.56710937 14.921875 2.890625 C17.92651322 4.4946048 19.16593945 6.1073976 21 9 C21.58210419 12.04029366 21.54688731 15.0290052 21.51757812 18.1171875 C21.5245874 19.0267218 21.53159668 19.9362561 21.53881836 20.87335205 C21.55639647 23.87421366 21.54477611 26.87412911 21.53125 29.875 C21.53394496 31.96338074 21.53782742 34.05176027 21.54284668 36.14013672 C21.54874149 40.51477009 21.54017914 44.88907653 21.52148438 49.26367188 C21.49869506 54.86943586 21.5118182 60.4744338 21.53577423 66.08016968 C21.55023254 70.39190435 21.54562602 74.7034576 21.53526306 79.01519775 C21.53259588 81.08205252 21.53586523 83.14892379 21.54518127 85.21575928 C21.55534719 88.10522049 21.53984489 90.99344345 21.51757812 93.8828125 C21.52567505 94.73595032 21.53377197 95.58908813 21.54211426 96.46807861 C21.48523064 100.45511254 21.2975429 102.51709765 19.16101074 105.98461914 C16.42669219 108.53467277 14.08884799 109.31239672 10.5 110.3125 C9.3759375 110.63863281 8.251875 110.96476562 7.09375 111.30078125 C4 112 4 112 0 112 C0 75.04 0 38.08 0 0 Z " fill="#000000" transform="translate(491,278)"/>
<path d="M0 0 C0 36.96 0 73.92 0 112 C-9.27536232 110.84057971 -9.27536232 110.84057971 -12.75 109.75 C-13.46671875 109.53859375 -14.1834375 109.3271875 -14.921875 109.109375 C-17.92651322 107.5053952 -19.16593945 105.8926024 -21 103 C-21.58210419 99.95970634 -21.54688731 96.9709948 -21.51757812 93.8828125 C-21.5245874 92.9732782 -21.53159668 92.0637439 -21.53881836 91.12664795 C-21.55639647 88.12578634 -21.54477611 85.12587089 -21.53125 82.125 C-21.53394496 80.03661926 -21.53782742 77.94823973 -21.54284668 75.85986328 C-21.54874149 71.48522991 -21.54017914 67.11092347 -21.52148438 62.73632812 C-21.49869506 57.13056414 -21.5118182 51.5255662 -21.53577423 45.91983032 C-21.55023254 41.60809565 -21.54562602 37.2965424 -21.53526306 32.98480225 C-21.53259588 30.91794748 -21.53586523 28.85107621 -21.54518127 26.78424072 C-21.55534719 23.89477951 -21.53984489 21.00655655 -21.51757812 18.1171875 C-21.52567505 17.26404968 -21.53377197 16.41091187 -21.54211426 15.53192139 C-21.48523064 11.54488746 -21.2975429 9.48290235 -19.16101074 6.01538086 C-16.42669219 3.46532723 -14.08884799 2.68760328 -10.5 1.6875 C-9.3759375 1.36136719 -8.251875 1.03523438 -7.09375 0.69921875 C-4 0 -4 0 0 0 Z " fill="#000000" transform="translate(21,278)"/>
<path d="M0 0 C3.58413652 -0.10788371 7.16503148 -0.18726305 10.75 -0.25 C11.76578125 -0.28351563 12.7815625 -0.31703125 13.828125 -0.3515625 C21.31981456 -0.45013736 21.31981456 -0.45013736 24.66796875 1.765625 C26.04341833 4.07283075 26.56770585 5.33460583 26.5625 8 C26.58441406 8.66 26.60632813 9.32 26.62890625 10 C25.56932562 13.36959803 24.06665934 14.27595769 21 16 C17.38077915 16.47835366 13.82991433 16.37720319 10.1875 16.25 C9.20845703 16.23195313 8.22941406 16.21390625 7.22070312 16.1953125 C4.81337997 16.14834034 2.40656257 16.07660146 0 16 C0 10.72 0 5.44 0 0 Z " fill="#000000" transform="translate(361,311)"/>
</svg>
